<svg xmlns="http://www.w3.org/2000/svg" viewBox="0 0 503.73 494.02"><defs><style>.cls-1,.cls-5{fill:#fff;}.cls-1,.cls-11,.cls-12,.cls-2,.cls-3,.cls-4,.cls-6,.cls-7{stroke:#000;stroke-miterlimit:10;}.cls-1,.cls-12,.cls-2,.cls-3,.cls-4,.cls-6,.cls-7{stroke-width:16px;}.cls-2{fill:#f2ec85;}.cls-3{fill:#48a9e0;}.cls-4{fill:#54c4f1;}.cls-6{fill:none;}.cls-7{fill:#fab524;}.cls-8{fill:#a0e5a6;}.cls-10,.cls-8,.cls-9{fill-rule:evenodd;}.cls-9{fill:#080807;}.cls-10{fill:#cb9b83;}.cls-11,.cls-12{fill:#1d1d1b;}.cls-11{stroke-width:12px;}</style></defs><g id="Layer_2" data-name="Layer 2"><g id="Layer_12" data-name="Layer 12"><g id="Layer_7" data-name="Layer 7"><g id="Layer_4" data-name="Layer 4"><rect class="cls-1" x="-10.47" y="362.23" width="167.29" height="75.18" rx="37.59" transform="translate(-305.08 251.04) rotate(-58.16)"/><line class="cls-2" x1="41.24" y1="379.98" x2="105.11" y2="419.64"/></g><g id="Layer_6" data-name="Layer 6"><path class="cls-3" d="M101.82,425.71l-24.3,39.13a37.59,37.59,0,0,1-51.76,12.1h0a37.6,37.6,0,0,1-12.1-51.77L38,386.05"/><line class="cls-4" x1="45.6" y1="373.75" x2="28.74" y2="400.89"/><line class="cls-2" x1="108.81" y1="414.46" x2="100.24" y2="428.26"/></g></g><g id="Layer_2_copy" data-name="Layer 2 copy"><g id="Layer_14" data-name="Layer 14"><rect class="cls-5" x="124.86" y="204.85" width="268.24" height="44.35"/><polyline class="cls-5" points="331.73 75.88 186.23 75.88 187.93 108.38 124.86 165.55 124.86 204.85 393.1 204.85 392.46 166.5 333.43 106.96"/></g><path class="cls-6" d="M393.09,213.32v-42A18.65,18.65,0,0,0,386.42,157l-53-50V75.88"/><path class="cls-1" d="M124.86,421.36v44.31a18.7,18.7,0,0,0,18.71,18.7H374.39a18.7,18.7,0,0,0,18.7-18.7V421.36"/><path class="cls-6" d="M187.93,75.88v32.49L131.53,157a18.65,18.65,0,0,0-6.67,14.32v47.29"/><path class="cls-1" d="M333.43,75.88H187.93c-14.49,0-27.1,1.37-27.1-13.13V34.25A26.25,26.25,0,0,1,187.08,8h145.5a26.25,26.25,0,0,1,26.25,26.25v28.5C358.83,77.25,347.93,75.88,333.43,75.88Z"/><path class="cls-7" d="M331.73,75.88H186.23c-14.5,0-27.11,1.37-27.11-13.13V34.25A26.25,26.25,0,0,1,185.37,8h145.5a26.25,26.25,0,0,1,26.25,26.25v28.5C357.12,77.25,346.22,75.88,331.73,75.88Z"/><line class="cls-1" x1="258.12" y1="8" x2="258.98" y2="75.88"/><line class="cls-1" x1="307.54" y1="8" x2="308.39" y2="75.88"/><line class="cls-1" x1="209.48" y1="8" x2="210.33" y2="75.88"/><line class="cls-1" x1="393.09" y1="436.37" x2="124.86" y2="436.37"/></g><g id="Layer_3" data-name="Layer 3"><polyline class="cls-2" points="393.1 326.62 393.1 439.9 124.86 439.9 124.86 204.85 393.1 204.85 393.1 244.39"/><g id="svgg"><path id="path0" class="cls-8" d="M225.81,252.75c1.44.08,2.89.19,3.22.27.56.12.55.1-.1-.16a10.14,10.14,0,0,0-3.22-.27l-2.52,0,2.62.13m5.06.59a2.07,2.07,0,0,0,.89.31l.7.12-.8-.31c-1-.37-1.06-.38-.79-.12m3,1.12c.73.38.92.38.42,0a1.52,1.52,0,0,0-.7-.3c-.16,0,0,.13.28.3m3.35,2.08c.49.45.94.77,1,.72s-.25-.39-1.29-1.12c-.33-.23-.2-.05.3.4m1.21,1a5.22,5.22,0,0,0,.81,1c.44.48.8.8.8.71a4.54,4.54,0,0,0-.8-1c-.45-.47-.81-.79-.81-.71m-15.1.69a4.28,4.28,0,0,0,.18.8l.16.51,0-.51a1.58,1.58,0,0,0-.18-.8c-.18-.27-.19-.27-.18,0m.41,2.44a1.07,1.07,0,0,0,.32.81c.31.24.33.24.12,0a2.35,2.35,0,0,1-.32-.8l-.09-.51,0,.53m18.13,1.73c0,.28.6,1,.6.69a1,1,0,0,0-.31-.56c-.16-.16-.3-.23-.29-.13m.6,1.42a.46.46,0,0,0,.2.35.61.61,0,0,1,.2.47c0,.49.41,1.91.52,1.8a6.29,6.29,0,0,0-.66-2.46c-.15-.22-.26-.29-.26-.16m-7,2c-.3.39-.51.75-.46.79s.32-.28.63-.71c.69-1,.56-1-.17-.08m5.48-.28a23.75,23.75,0,0,0,2,2c.32.27-.05-.16-.82-1-1.31-1.35-2.07-2-1.2-1m-14.64.58c.56.78.69.78.24,0-.18-.33-.41-.6-.5-.6s0,.27.26.6m8.42,1.59a1,1,0,0,0,.07.66c.12.18.18.06.18-.38,0-.74-.1-.85-.25-.28m-5.18,1.79c0,.08.25.32.55.54l.55.38-.49-.53c-.51-.57-.63-.64-.61-.39m-2.83,10.75c-.39.1-1.39.27-2.22.37a25.68,25.68,0,0,0-3.1.61,14.36,14.36,0,0,1-2,.42,1.66,1.66,0,0,0-.82.31,1.7,1.7,0,0,1-.86.29,2.1,2.1,0,0,0-.82.18,9.8,9.8,0,0,1-2.12.83,40.28,40.28,0,0,0-5.49,2.62A44.3,44.3,0,0,0,196,297.38c-.49.68-1.07,1.47-1.28,1.74a13.57,13.57,0,0,0-.76,1.21,6.1,6.1,0,0,1-.63,1,5.61,5.61,0,0,0-.59,1.06c-.2.44-.41.81-.49.81a1.8,1.8,0,0,0-.39.81,3,3,0,0,1-.54,1,.74.74,0,0,0-.27.48,5.56,5.56,0,0,1-.5,1.27A5.6,5.6,0,0,0,190,308a2.4,2.4,0,0,1-.27.78,9.85,9.85,0,0,0-.53,1.34c-.14.45-.37,1.08-.51,1.42a5.4,5.4,0,0,0-.36,1.21A8,8,0,0,1,188,314c-.12.33-.3,1-.41,1.41a39.81,39.81,0,0,0-1.21,7.56c-.13,1.16-.33,2.8-.44,3.63a30.29,30.29,0,0,0,0,6.8c.1.75.3,2.46.42,3.79a61.67,61.67,0,0,0,.78,6.35c.13.61.32,1.61.44,2.22a16.57,16.57,0,0,0,.5,1.92,5.91,5.91,0,0,1,.28,1.53,1.87,1.87,0,0,0,.14.86,11,11,0,0,1,.87,2.85,1.6,1.6,0,0,0,.31.79,1.63,1.63,0,0,1,.29.81,6.32,6.32,0,0,0,.43,1.53,15.22,15.22,0,0,1,.53,1.61,3.76,3.76,0,0,0,.36.9,7.05,7.05,0,0,1,.5,1.21,53.81,53.81,0,0,0,2.6,6,12.48,12.48,0,0,1,.83,2c0,.13.06.24.15.24a2.82,2.82,0,0,1,.62,1c.25.53.72,1.41,1,2s.73,1.3.91,1.66a4,4,0,0,0,.62.88.75.75,0,0,1,.29.45,2.65,2.65,0,0,0,.5.86,3.44,3.44,0,0,1,.5.79c0,.15,4.23,6,4.55,6.25.12.12.62.7,1.11,1.32a63.37,63.37,0,0,0,4.72,5l1.69,1.59a4.12,4.12,0,0,0,.82.66,7.46,7.46,0,0,1,1.13.91,7.25,7.25,0,0,0,1.13.9,6.08,6.08,0,0,1,1.33,1,.91.91,0,0,0,.33.21s.75.43,1.57,1,2.12,1.28,2.9,1.66a12.26,12.26,0,0,1,1.51.83,1.74,1.74,0,0,0,.61.28c.27.09,1,.37,1.55.63a5.12,5.12,0,0,0,1.42.48,1,1,0,0,1,.57.17,9,9,0,0,0,1.8.53,19.56,19.56,0,0,1,2.12.56,44,44,0,0,0,8.47.19,30.05,30.05,0,0,0,11.31-4.31l1.64-1c1.17-.72,2.92-.29,4.91,1.18a26.18,26.18,0,0,0,5.61,2.72.53.53,0,0,1,.41.18,1.27,1.27,0,0,0,.67.29c.3.06,1.15.26,1.87.44a18.42,18.42,0,0,0,5.95.68,26.12,26.12,0,0,0,9.37-1.52c.5-.16,1.11-.37,1.36-.48l.91-.38a42.82,42.82,0,0,0,4.54-2.28,8.44,8.44,0,0,1,1.46-.76.19.19,0,0,0,.2-.17c0-.09.21-.26.46-.38a29.67,29.67,0,0,0,3.17-2.27c.06-.07.51-.43,1-.81a71,71,0,0,0,7.26-7.07c.39-.47,1.18-1.43,1.77-2.13a7.25,7.25,0,0,0,1-1.46.52.52,0,0,1,.27-.37,8.75,8.75,0,0,0,1.16-1.47,9.33,9.33,0,0,1,1-1.38.29.29,0,0,0,.16-.25,13.82,13.82,0,0,1,1.41-2.21,2.73,2.73,0,0,0,.35-.6,14.83,14.83,0,0,1,.75-1.31c.28-.45.71-1.19.95-1.67s.52-.85.61-.85.16-.17.16-.37a.85.85,0,0,1,.19-.55c.1-.11.7-1.24,1.32-2.51,1.09-2.23,1.36-2.81,1.91-4.14l.52-1.21c.14-.33.42-1,.61-1.56a3.87,3.87,0,0,1,.52-1.08c.1-.05.17-.33.17-.61a2.63,2.63,0,0,1,.29-1.05,11.24,11.24,0,0,0,.63-1.75,6.44,6.44,0,0,1,.52-1.4,1,1,0,0,0,.18-.58,16.09,16.09,0,0,1,.82-3.06,8.25,8.25,0,0,0,.3-1.3,5.79,5.79,0,0,1,.3-1.21,30.22,30.22,0,0,0,.8-4.3,1.81,1.81,0,0,1,.18-.7c.3-.54.85-5.83,1.15-11a57.81,57.81,0,0,0-.66-10.31,27.58,27.58,0,0,0-.48-3,13.12,13.12,0,0,1-.4-1.61,45.68,45.68,0,0,0-2.33-7.87l-.6-1.41c-.19-.44-.61-1.34-.93-2-1.38-2.76-1.41-3.75-.15-5.38l.56-.73-1.4-1.95c-.77-1.07-1.4-2-1.4-2a6.77,6.77,0,0,0-.8-.95,3.68,3.68,0,0,1-.81-1.11c0-.18-.12-.19-.5,0s-.51.3-.51.39c0,.28-2.43.15-3-.15a3.84,3.84,0,0,1-1.31-5c.22-.33.3-.54.19-.47s-.51-.13-.88-.46a3.94,3.94,0,0,0-.81-.59,2.3,2.3,0,0,1-.64-.48,12.74,12.74,0,0,0-1.4-1,9.65,9.65,0,0,1-1.16-.83.91.91,0,0,0-.48-.27,1,1,0,0,1-.51-.32c-.29-.28-.38-.25-.95.3a3.69,3.69,0,0,1-4.57.29,1.11,1.11,0,0,0-.55-.27,5.48,5.48,0,0,1-1.17-.5,4.87,4.87,0,0,0-1.21-.51,9.54,9.54,0,0,1-2.15-.83,2.1,2.1,0,0,0-.82-.18,1.73,1.73,0,0,1-.86-.29,1.63,1.63,0,0,0-.82-.31,14.58,14.58,0,0,1-3.34-.81,3.86,3.86,0,0,0-1.32-.21,13,13,0,0,1-2.27-.29,56.85,56.85,0,0,0-10.58-.09c-.45.11-1.45.28-2.22.38a25.84,25.84,0,0,0-5.38,1.34,2.26,2.26,0,0,1-.82.28,5.88,5.88,0,0,0-1.33.51,7,7,0,0,1-1.24.5,12.11,12.11,0,0,0-1.77.84c-4,2.14-3.78,2.12-6.65.68a18.38,18.38,0,0,1-2.38-1.33.65.65,0,0,0-.48-.19,6.58,6.58,0,0,1-2.08-.82,1.84,1.84,0,0,0-.68-.19,2.5,2.5,0,0,1-.86-.27,24.68,24.68,0,0,0-5.37-1.35,17.18,17.18,0,0,1-2.12-.38,69.16,69.16,0,0,0-10.28,0"/><path id="path1" class="cls-9" d="M276.63,238a3.33,3.33,0,0,1-.94.19,2.93,2.93,0,0,0-1.11.3c-.32.16-1.21.53-2,.84-3,1.17-8.42,4.12-9.68,5.26a7.88,7.88,0,0,1-1,.75,51.67,51.67,0,0,0-6.86,6.39,47.3,47.3,0,0,0-4.6,6.24c-.86,1.77-1.81,2.63-2.09,1.87a27.12,27.12,0,0,0-5-6.92c-2.34-2.32-4.16-3.52-8.33-5.47a39,39,0,0,0-4.53-1.19c-1.79-.34-11.87-.23-12.48.13-1.9,1.12-2.36,9.06-.89,15.51a6.79,6.79,0,0,0,.49,1.6,1,1,0,0,1,.17.57c0,1.2,3,6.21,4.93,8.22,1.25,1.3,1.18,1.81-.23,1.81a18.66,18.66,0,0,0-3.7.8,6.3,6.3,0,0,1-1.21.3,4.53,4.53,0,0,0-1.1.3A11.75,11.75,0,0,1,215,276a15.09,15.09,0,0,0-1.82.64,2.6,2.6,0,0,1-.65.26c-.86,0-8.44,4.08-10.84,5.83-1.55,1.13-5.12,4.17-6.66,5.67a55.48,55.48,0,0,0-11.47,17.84c-.37,1-.74,2-.83,2.22a40.71,40.71,0,0,0-1.62,5.55,16.14,16.14,0,0,1-.43,1.61,10.06,10.06,0,0,0-.37,1.81c-.09.72-.33,2.31-.52,3.53a106.72,106.72,0,0,0,0,18.15c.2,1.45.43,3.29.53,4.11a12.62,12.62,0,0,0,.38,2,8.82,8.82,0,0,1,.31,1.23c.06.39.25,1.3.41,2s.35,1.58.42,1.92.25,1,.39,1.51.42,1.45.61,2.12a75.43,75.43,0,0,0,2.54,7.41,1.58,1.58,0,0,1,.19.57,9.25,9.25,0,0,0,.6,1.53c.33.72.61,1.36.61,1.42,0,.28,2.62,5.63,4,8.22a34.82,34.82,0,0,0,2.07,3.57,11.16,11.16,0,0,1,.75,1.24,74.53,74.53,0,0,0,4.61,6.59l1.52,1.9c4.76,6,13,12.88,18.68,15.58,2,1,3.62,1.68,3.74,1.68a4.18,4.18,0,0,1,.76.27,30.86,30.86,0,0,0,7.19,1.94l3.36.4c2.07.24,2.28.23,7.73-.4a23.63,23.63,0,0,0,5.18-1.36,1.93,1.93,0,0,1,.72-.25,6,6,0,0,0,1.33-.5,5.54,5.54,0,0,1,1.33-.51.54.54,0,0,0,.42-.19,2.72,2.72,0,0,1,.86-.55,14.61,14.61,0,0,0,1.5-.81,1.57,1.57,0,0,1,2.08-.06,38.45,38.45,0,0,0,4.53,2.21c.61.24,1.38.56,1.72.71a6.65,6.65,0,0,0,1.11.38c.27.05,1,.25,1.71.43a34.17,34.17,0,0,0,10.12.92,40,40,0,0,0,6-.93c.67-.18,1.49-.38,1.82-.44a3.11,3.11,0,0,0,1-.38,1.62,1.62,0,0,1,.74-.28c.71,0,5.44-2.16,7.59-3.47a11.28,11.28,0,0,1,1.38-.76c.19,0,5.57-4,6.23-4.58.33-.31,1-.9,1.51-1.3,2.65-2.12,7.67-7.78,10.9-12.28,1.38-1.92,4.83-7.3,4.83-7.54,0,0,.45-.89,1-1.85s1-1.78,1-1.82.5-1.14,1.12-2.44a68.42,68.42,0,0,0,3.53-8.32c.13-.39.31-.85.38-1s.31-.85.5-1.51.49-1.5.64-1.85a3.28,3.28,0,0,0,.28-1.12,1.3,1.3,0,0,1,.17-.68,7.52,7.52,0,0,0,.52-1.7c.19-.83.44-1.78.56-2.12a24.41,24.41,0,0,0,.76-3.51,8.91,8.91,0,0,1,.36-1.5,9.06,9.06,0,0,0,.28-1.63c.08-.78.3-2.42.48-3.64.72-4.71.63-15.77-.15-19.87-.11-.61-.28-1.69-.36-2.42a13.43,13.43,0,0,0-.36-1.91c-.11-.33-.31-1.15-.44-1.82a12.85,12.85,0,0,0-.46-1.71,10.48,10.48,0,0,1-.36-1.21,32,32,0,0,0-1.3-3.93c-.13-.34-.36-.88-.5-1.21-2.47-6-3.8-7.37-6.12-6.48-2.48.95-2.77,2.66-1,6.28a42.2,42.2,0,0,1,1.94,4.73c.22.61.47,1.3.57,1.52a31.44,31.44,0,0,1,.94,3.53c.17.72.4,1.67.51,2.11,1.56,6,1.6,20.81.06,25.7a6.48,6.48,0,0,0-.28,1.66,4.5,4.5,0,0,1-.18,1.22c-.1.25-.33,1.14-.52,2-.34,1.55-.52,2.19-1.44,5.34-.5,1.73-1.2,3.8-1.8,5.34-.15.39-.43,1.14-.62,1.67a3.37,3.37,0,0,1-.52,1.07.53.53,0,0,0-.17.4,15,15,0,0,1-1.23,2.91,8,8,0,0,0-.42.9c-.4,1-2.84,5.62-3.76,7.07-.28.44-.61,1-.72,1.21-.27.5-3,4.6-3.15,4.74s-.47.6-.91,1.21-1.16,1.52-1.61,2-1,1.24-1.31,1.6-1.63,1.82-3,3.23c-11.48,11.64-24.34,15.88-35.84,11.82a29,29,0,0,1-5.52-2.68.73.73,0,0,0-.42-.28,2.87,2.87,0,0,1-.84-.48c-1.92-1.43-2.87-1.34-5.76.54-5.66,3.69-15.3,5.57-20,3.89a5.31,5.31,0,0,0-1.46-.32A2.54,2.54,0,0,1,228,399a13.67,13.67,0,0,0-1.46-.52,20.8,20.8,0,0,1-4-1.66,1.13,1.13,0,0,0-.55-.26,8.29,8.29,0,0,1-2.16-1.16c-.22-.13-.69-.39-1-.57a3.29,3.29,0,0,1-.88-.61.73.73,0,0,0-.42-.28,24,24,0,0,1-3.3-2.31,10.83,10.83,0,0,0-1-.81c-4.27-3.14-12.2-12.59-15.14-18.06a9.78,9.78,0,0,0-.62-1c-.33-.42-3.52-6.71-4.09-8.06l-.91-2.12c-.25-.56-.57-1.33-.71-1.72s-.38-1-.53-1.34a3.07,3.07,0,0,1-.28-.92.7.7,0,0,0-.13-.42,9.63,9.63,0,0,1-.87-2.67,1.08,1.08,0,0,0-.22-.63,6.76,6.76,0,0,1-.59-1.74,13.46,13.46,0,0,0-.5-1.74,5.12,5.12,0,0,1-.3-1.17c-.1-.53-.36-1.68-.6-2.56a13,13,0,0,1-.42-2.15,10.85,10.85,0,0,0-.28-1.73,84.61,84.61,0,0,1-1.27-14,94.32,94.32,0,0,1,1.19-10.59c.1-.44.27-1.26.36-1.81s.33-1.51.51-2.12.4-1.38.48-1.72a27.64,27.64,0,0,1,1.44-4,.71.71,0,0,0,.19-.47,6,6,0,0,1,.49-1.32,15.31,15.31,0,0,0,.61-1.5c.08-.25.21-.45.29-.45s.28-.36.43-.81a3,3,0,0,1,.53-1,.74.74,0,0,0,.27-.41c0-.87,4.24-6.57,6.9-9.29a42.12,42.12,0,0,1,14.32-9.81,5.49,5.49,0,0,1,1.16-.43,1.46,1.46,0,0,0,.56-.2,38.8,38.8,0,0,1,5.09-1.61c.61-.13,1.52-.36,2-.51a14.2,14.2,0,0,1,2-.39c.61-.06,1.79-.2,2.62-.31a60,60,0,0,1,9.58,0l2.72.38a13.19,13.19,0,0,1,1.92.39c.33.12,1.22.36,2,.55a5.34,5.34,0,0,1,1.47.51.64.64,0,0,0,.49.17c.46,0,1.84.61,5.2,2.28,3.1,1.54,3.23,1.54,6.13.09,3.11-1.55,5-2.37,5.38-2.37a.89.89,0,0,0,.54-.18,35.64,35.64,0,0,1,6.44-1.63,61.85,61.85,0,0,1,10.89-.22,35.33,35.33,0,0,1,5.25.78c.33.1,1.1.3,1.71.44a28.83,28.83,0,0,1,5.09,1.64,1.59,1.59,0,0,0,.57.18,16.68,16.68,0,0,1,2.07.88c4,1.9,6.09,1.18,6.09-2.09,0-2.22-.63-2.79-4.89-4.44-.86-.33-1.7-.68-1.87-.77a12.38,12.38,0,0,0-1.51-.52c-.67-.2-1.39-.44-1.62-.54a9.1,9.1,0,0,0-1.21-.37l-2.11-.52c-5.53-1.41-17-1.82-20.17-.71-1.79.63-2.91.34-2.37-.61a3,3,0,0,0,.35-.84c0-1.91,5.15-8.68,8.59-11.29,2-1.52,6.7-4,7.58-4,.68,0,3-1.42,4.09-2.52A9.86,9.86,0,0,0,280.71,238a10.93,10.93,0,0,0-4.08,0m3.85,6.87c2.64,1.63,1.08,6.44-2.09,6.44a2.26,2.26,0,0,0-.82.28L274.71,253a33.11,33.11,0,0,0-8.31,6,37.28,37.28,0,0,0-4.39,5.5,3,3,0,0,1-.47.78c-1.29,1.72-3.19,6.55-4,10.19-.26,1.1-.81,1.57-2.77,2.31a3.21,3.21,0,0,0-.64.36c-.5.36-3.34-1-3.51-1.73a13.22,13.22,0,0,1,.73-3.92,2.69,2.69,0,0,0,.19-.9,2.56,2.56,0,0,1,.26-.95,9.31,9.31,0,0,0,.54-1.51,10.45,10.45,0,0,1,.52-1.52c.13-.27.49-1,.78-1.71s.62-1.35.72-1.51.38-.67.6-1.11a40.91,40.91,0,0,1,16.44-16.26l1.52-.78a18.11,18.11,0,0,1,3.06-1.21.79.79,0,0,0,.48-.2c.66-.66,3-.66,4,0m-52,7.66a14,14,0,0,1,5.85,1.76c4.5,2.14,9.28,8.27,9.28,11.91a6.13,6.13,0,0,0,.23,1.47c.37,1.25.08,1.14-1.76-.65-2.58-2.53-3.7-2.93-5.31-1.91-2.4,1.51-2.2,3.73.57,6.46,2,2,1.92,2.19-.59,1.63-8.28-1.81-13.41-8.16-13.82-17.1-.12-2.43-.09-3.24.1-3.48s3.5-.4,5.45-.09m79.49,35c-3,1.47-1.71,5.92,1.68,5.92,2.29,0,4-3.12,2.65-4.79a3.36,3.36,0,0,0-4.33-1.13"/><path id="path3" class="cls-10" d="M275.62,237.86a10.81,10.81,0,0,0-1.18.48,2.51,2.51,0,0,1-.87.28,6.45,6.45,0,0,0-1.44.52c-1.77.78-3.34,1.52-3.67,1.72-.17.1-.71.37-1.21.61a6,6,0,0,0-1,.57,1.25,1.25,0,0,1-.4.28,47.91,47.91,0,0,0-5.35,3.73,63.15,63.15,0,0,0-6.46,6.38c-.33.43-.85,1.07-1.15,1.41a5.5,5.5,0,0,0-.81,1.17c-.13.3-.31.55-.38.55a26.74,26.74,0,0,0-2.45,3.89c-.22.61-.63.38-1-.56-.2-.5-.45-.91-.55-.91s-.18-.12-.18-.27c0-1.36-5.46-7-8.36-8.59-2.46-1.38-3-1.62-3.31-1.62s-.43-.07-.47-.15a6.71,6.71,0,0,0-2.6-.86,1.22,1.22,0,0,1-.7-.19c-.58-.58-10.65-1.07-12.76-.63a4.21,4.21,0,0,0-2.91,2.16c-.41.74-.52,9.75-.14,11.26.11.45.29,1.26.38,1.82a10.1,10.1,0,0,0,.83,3,.93.93,0,0,1,.19.55,4.56,4.56,0,0,0,.86,1.95.51.51,0,0,1,.15.41c0,.48,2.61,4.37,3.71,5.54s.95,1.55-.42,1.55a6,6,0,0,0-1.48.22c-.39.12-1.07.29-1.51.39a12.23,12.23,0,0,0-2.81.78,2.88,2.88,0,0,1-.87.29,6.81,6.81,0,0,0-1.5.53,4.4,4.4,0,0,1-1.13.41,2.38,2.38,0,0,0-.82.28c-.29.16-.9.44-1.34.62a51.23,51.23,0,0,0-5.95,3.11,5.54,5.54,0,0,1-1.21.77,2.65,2.65,0,0,0-.5.3c-.11.09-.82.61-1.58,1.15a51.54,51.54,0,0,0-9,8.29,6.59,6.59,0,0,1-.67.8,21.67,21.67,0,0,0-1.58,2,6,6,0,0,1-.51.68c-.24.26-1.92,2.89-2.76,4.33-.49.83-1.27,2.36-2.91,5.75a4.79,4.79,0,0,0-.47,1.32.87.87,0,0,1-.19.53,23,23,0,0,0-1.42,3.93c-.09.38-.35,1.29-.58,2a8.4,8.4,0,0,0-.43,1.93,1.42,1.42,0,0,1-.2.81,17.11,17.11,0,0,0-.81,4.32c-.09.72-.26,1.8-.39,2.4-.27,1.36-.27,15,0,16.46.11.55.28,1.73.38,2.62a23.25,23.25,0,0,0,.79,4.82,4,4,0,0,1,.29,1.33,14.56,14.56,0,0,0,.45,2.22,15.57,15.57,0,0,1,.47,2,5.24,5.24,0,0,0,.29,1.15,12,12,0,0,1,.56,1.81,8.33,8.33,0,0,0,.6,1.76,1.05,1.05,0,0,1,.19.61,7.73,7.73,0,0,0,.86,2.45,1,1,0,0,1,.15.58,1.6,1.6,0,0,0,.29.82,1.73,1.73,0,0,1,.31.8,5.6,5.6,0,0,0,.51,1.41,7.82,7.82,0,0,1,.5,1.15,42.12,42.12,0,0,0,1.85,4.19c.45.94,1,2,1.14,2.42a6,6,0,0,0,.44.81c.05.05.42.74.8,1.51a8.29,8.29,0,0,0,.86,1.48.3.3,0,0,1,.15.25c0,.78,5.74,9.13,8.64,12.59,3.33,4,8.21,8.64,10.76,10.33.42.28.77.59.77.69a.19.19,0,0,0,.2.17,8.19,8.19,0,0,1,1.57,1c.74.53,1.49,1,1.66,1.11s.75.41,1.31.74c1.08.65,5.43,2.82,5.65,2.82a4.54,4.54,0,0,1,.77.28,8.48,8.48,0,0,0,1,.39c.22,0,.9.29,1.51.52a6.42,6.42,0,0,0,1.66.42,4,4,0,0,1,1.21.28c2.76,1.18,12.17,1.18,15.34,0a4.86,4.86,0,0,1,1.35-.28,1,1,0,0,0,.71-.2.8.8,0,0,1,.57-.21,1.68,1.68,0,0,0,.83-.3,1.55,1.55,0,0,1,.76-.3,1.76,1.76,0,0,0,.72-.19l2.16-1.08c1-.49,2.09-1,2.42-1.22.81-.44,2.57,0,2.89.73a.54.54,0,0,0,.43.15.94.94,0,0,1,.61.3.83.83,0,0,0,.44.31,6.54,6.54,0,0,1,1.24.48,14.07,14.07,0,0,0,1.45.58c.22.06.9.3,1.51.53a6.63,6.63,0,0,0,1.55.42,3.56,3.56,0,0,1,1.12.29c2.7,1.17,12.11,1.16,15.33,0a5.22,5.22,0,0,1,1.45-.28,1.28,1.28,0,0,0,.82-.2.78.78,0,0,1,.58-.2,1.65,1.65,0,0,0,.84-.3,1.52,1.52,0,0,1,.7-.3,26.24,26.24,0,0,0,5.55-2.44.67.67,0,0,1,.51-.19c.21,0,.39-.09.39-.2s.13-.2.29-.2a1,1,0,0,0,.56-.25,7.74,7.74,0,0,1,1.71-1.08,3.29,3.29,0,0,0,.88-.61.81.81,0,0,1,.41-.28,6.69,6.69,0,0,0,2-1.45c0-.09.1-.16.22-.16a2.39,2.39,0,0,0,.87-.56l1.64-1.36a67.52,67.52,0,0,0,8.46-8.45c.44-.54.9-1.09,1-1.21s.47-.58.79-1a10,10,0,0,1,.82-1,6.78,6.78,0,0,0,.71-.93l2.11-3.14a30.61,30.61,0,0,0,2.25-3.49,1.46,1.46,0,0,1,.25-.4,15.79,15.79,0,0,0,1.36-2.38,13.37,13.37,0,0,1,.9-1.54,1,1,0,0,0,.18-.56c0-.2.07-.36.16-.36s.84-1.31.84-1.71a.39.39,0,0,1,.17-.34,13,13,0,0,0,1.45-2.94,4.26,4.26,0,0,1,.5-1.09,3.85,3.85,0,0,0,.5-1.33c0-.25.08-.46.18-.46a2.9,2.9,0,0,0,.58-1.16l.67-1.86c.14-.39.32-.89.41-1.11a7.47,7.47,0,0,0,.79-2.41,1.66,1.66,0,0,1,.29-.83,1.81,1.81,0,0,0,.31-.93,1,1,0,0,1,.2-.67.94.94,0,0,0,.21-.67,2.59,2.59,0,0,1,.3-1,2.6,2.6,0,0,0,.29-1.09,8.49,8.49,0,0,1,.33-1.61,8.65,8.65,0,0,0,.69-3,3,3,0,0,1,.23-1.18,8.2,8.2,0,0,0,.4-1.75c.1-.73.31-2.19.48-3.24.71-4.33.7-17.16,0-21.18-.18-1.05-.4-2.37-.48-2.92a5.62,5.62,0,0,0-.39-1.45,2.74,2.74,0,0,1-.24-1.09,7.79,7.79,0,0,0-.73-2.76,3.84,3.84,0,0,1-.28-1.14,2.91,2.91,0,0,0-.3-1.05,2.55,2.55,0,0,1-.3-.92.58.58,0,0,0-.21-.46.66.66,0,0,1-.2-.5,2.77,2.77,0,0,0-.27-.95,20.7,20.7,0,0,1-1.34-3,26.17,26.17,0,0,0-1.59-3.23,3.49,3.49,0,0,0-5.63-.15c-1.18,1.72-.9,3.17,1.38,7.34a1.51,1.51,0,0,1,.19.62,1.47,1.47,0,0,0,.3.65c.41.55-.23-1.18-1.21-3.23-1.72-3.62-1.43-5.33,1-6.28,1.8-.69,3.15.19,4.48,2.87.83,1.7,1.05,2.19,1.64,3.61.14.33.37.87.5,1.21a32,32,0,0,1,1.3,3.93,10.48,10.48,0,0,0,.36,1.21,12.85,12.85,0,0,1,.46,1.71c.13.67.33,1.49.44,1.82a13.43,13.43,0,0,1,.36,1.91c.08.73.25,1.81.36,2.42.78,4.1.87,15.16.15,19.87-.18,1.22-.4,2.86-.48,3.64a9.06,9.06,0,0,1-.28,1.63,8.91,8.91,0,0,0-.36,1.5,24.41,24.41,0,0,1-.76,3.51c-.12.34-.37,1.29-.56,2.12a7.52,7.52,0,0,1-.52,1.7,1.3,1.3,0,0,0-.17.68,3.28,3.28,0,0,1-.28,1.12c-.15.35-.44,1.18-.64,1.85s-.42,1.34-.5,1.51-.25.62-.38,1a68.42,68.42,0,0,1-3.53,8.32c-.62,1.3-1.12,2.4-1.12,2.44s-.46.86-1,1.82-1,1.8-1,1.85c0,.24-3.45,5.62-4.83,7.54-3.23,4.5-8.25,10.16-10.9,12.28-.5.4-1.18,1-1.51,1.3-.66.63-6,4.58-6.23,4.58a11.28,11.28,0,0,0-1.38.76c-2.15,1.31-6.88,3.47-7.59,3.47a1.62,1.62,0,0,0-.74.28,3.11,3.11,0,0,1-1,.38c-.33.06-1.15.26-1.82.44a40,40,0,0,1-6,.93,34.17,34.17,0,0,1-10.12-.92c-.67-.18-1.44-.38-1.71-.43a6.65,6.65,0,0,1-1.11-.38c-.34-.15-1.11-.47-1.72-.71a38.45,38.45,0,0,1-4.53-2.21,1.57,1.57,0,0,0-2.08.06,14.61,14.61,0,0,1-1.5.81,2.72,2.72,0,0,0-.86.55.54.54,0,0,1-.42.19,5.54,5.54,0,0,0-1.33.51,6,6,0,0,1-1.33.5,1.93,1.93,0,0,0-.72.25,23.63,23.63,0,0,1-5.18,1.36c-5.45.63-5.66.64-7.73.4l-3.36-.4a30.86,30.86,0,0,1-7.19-1.94,4.18,4.18,0,0,0-.76-.27c-.12,0-1.73-.72-3.74-1.68-5.66-2.7-13.92-9.59-18.68-15.58l-1.52-1.9a74.53,74.53,0,0,1-4.61-6.59,11.16,11.16,0,0,0-.75-1.24,34.82,34.82,0,0,1-2.07-3.57c-1.41-2.59-4-7.94-4-8.22,0-.06-.28-.7-.61-1.42a9.25,9.25,0,0,1-.6-1.53,1.58,1.58,0,0,0-.19-.57,75.43,75.43,0,0,1-2.54-7.41c-.19-.67-.46-1.62-.61-2.12s-.32-1.18-.39-1.51-.26-1.2-.42-1.92-.35-1.63-.41-2a8.82,8.82,0,0,0-.31-1.23,12.62,12.62,0,0,1-.38-2c-.1-.82-.33-2.66-.53-4.11a106.72,106.72,0,0,1,0-18.15c.19-1.22.43-2.81.52-3.53a10.06,10.06,0,0,1,.37-1.81,16.14,16.14,0,0,0,.43-1.61,40.71,40.71,0,0,1,1.62-5.55c.09-.22.46-1.22.83-2.22a55.48,55.48,0,0,1,11.47-17.84c1.54-1.5,5.11-4.54,6.66-5.67,2.4-1.75,10-5.82,10.84-5.83a2.6,2.6,0,0,0,.65-.26A15.09,15.09,0,0,1,215,276a11.75,11.75,0,0,0,1.51-.52,4.53,4.53,0,0,1,1.1-.3,6.3,6.3,0,0,0,1.21-.3,18.66,18.66,0,0,1,3.7-.8c1.41,0,1.48-.51.23-1.81-1.93-2-4.93-7-4.93-8.22a1,1,0,0,0-.17-.57,6.79,6.79,0,0,1-.49-1.6c-1.47-6.45-1-14.39.89-15.51.61-.36,10.69-.47,12.48-.13a39,39,0,0,1,4.53,1.19c4.17,1.95,6,3.15,8.33,5.47a27.12,27.12,0,0,1,5,6.92c.28.76,1.23-.1,2.09-1.87a47.3,47.3,0,0,1,4.6-6.24,51.67,51.67,0,0,1,6.86-6.39,7.88,7.88,0,0,0,1-.75c1.26-1.14,6.67-4.08,9.68-5.27.78-.3,1.69-.67,2-.82a12.64,12.64,0,0,1,5.93-.51,9.86,9.86,0,0,1,4.95,16.65c-1.11,1.1-3.41,2.52-4.09,2.52-.88,0-5.59,2.47-7.58,4-3.44,2.61-8.59,9.38-8.59,11.29a3,3,0,0,1-.35.84c-.54.95.58,1.24,2.37.61,3.14-1.11,14.64-.7,20.17.71l2.11.52a9.1,9.1,0,0,1,1.21.37c.23.1.95.34,1.62.54a12.38,12.38,0,0,1,1.51.52c.17.09,1,.44,1.87.77,4.26,1.65,4.89,2.22,4.89,4.44s-1.47,3.54-3.61,3.12c-.47-.09-.55-.07-.33.09,1.51,1.05,4.44-1.05,4.44-3.18s-1-3.06-5.45-4.87l-1.71-.71a15.49,15.49,0,0,0-1.51-.51,13.32,13.32,0,0,1-1.55-.52,3.38,3.38,0,0,0-.89-.28,11.48,11.48,0,0,1-2.35-.63,13.69,13.69,0,0,0-2-.39c-.66-.09-2.3-.35-3.63-.57a49.51,49.51,0,0,0-13.21,0c-1.27.23-2.66.46-3.08.52L265,274l.23-.58c.13-.31.3-.76.38-1a28.65,28.65,0,0,1,3.21-5.77,8.53,8.53,0,0,0,.73-.89c1.4-2,6.73-6.34,7.71-6.34a.33.33,0,0,0,.29-.16,12.69,12.69,0,0,1,3.17-1.46c.23,0,.41-.07,1.6-.67a3.33,3.33,0,0,1,.87-.34c.87,0,3.82-3,4.53-4.63.13-.28.37-.85.56-1.27a15,15,0,0,0,0-6.32,9.91,9.91,0,0,0-3.73-5.05,10.14,10.14,0,0,0-3.23-1.66,20,20,0,0,0-5.73,0m1.82,6.63a3.08,3.08,0,0,0-1,.39.79.79,0,0,1-.48.2,18.11,18.11,0,0,0-3.06,1.21l-1.52.78a40.91,40.91,0,0,0-16.44,16.26c-.22.44-.49.94-.6,1.11s-.42.84-.72,1.51-.65,1.44-.78,1.71a10.45,10.45,0,0,0-.52,1.52,9.31,9.31,0,0,1-.54,1.51,2.56,2.56,0,0,0-.26.95,2.69,2.69,0,0,1-.19.9,13.22,13.22,0,0,0-.73,3.92c.17.69,3,2.09,3.51,1.73a3.21,3.21,0,0,1,.64-.36c2-.74,2.51-1.21,2.77-2.31.83-3.64,2.73-8.47,4-10.19a3,3,0,0,0,.47-.78,37.28,37.28,0,0,1,4.39-5.5,33.11,33.11,0,0,1,8.31-6l2.86-1.41a2.26,2.26,0,0,1,.82-.28,7,7,0,0,0,2.77-1.48c2-2.83-.3-6.2-3.72-5.36m-54.36,8.15c-.32.39-.09,6.18.31,7.66a18.14,18.14,0,0,0,2.6,5.75,24.25,24.25,0,0,0,4.79,4.7,19.28,19.28,0,0,0,6,2.47c2.51.56,2.59.34.59-1.63-2.77-2.73-3-4.95-.57-6.46,1.61-1,2.73-.62,5.31,1.91,1.84,1.79,2.13,1.9,1.76.65a6.13,6.13,0,0,1-.23-1.47c0-3.64-4.78-9.77-9.28-11.91a13.09,13.09,0,0,0-5.45-1.68l-.7-.09.7.29a4.88,4.88,0,0,0,1.32.3,7,7,0,0,1,1.71.43c.61.24,1.29.48,1.51.54a7,7,0,0,1,1.16.59,4.74,4.74,0,0,0,.86.47c1,0,5.38,4.64,6.27,6.66.2.44.43.8.52.8s.17.21.17.46a1.8,1.8,0,0,0,.26.86,7.63,7.63,0,0,1,.71,3.29l-.07.68-1.41-1.43a10.71,10.71,0,0,0-1.58-1.43,1.07,1.07,0,0,1-.46-.31c-.52-.51-2.46-.4-3.34.19-2.37,1.61-2.23,3.91.39,6.56a9.24,9.24,0,0,1,1.26,1.43c0,.24-2,0-2.75-.33a3.31,3.31,0,0,0-.88-.29,5.39,5.39,0,0,1-1.25-.5,5.16,5.16,0,0,0-1.29-.51c-.15,0-.28-.09-.28-.19s-.37-.39-.82-.62c-1.41-.72-5.64-5.22-5.64-6a5.39,5.39,0,0,0-.5-1.13,4.3,4.3,0,0,1-.5-1.32.88.88,0,0,0-.29-.6c-.36-.31-.51-1.57-.65-5.61l-.11-3.27,2.29-.06,2.28-.07-2.24,0c-1.8,0-2.29,0-2.5.26M230,279.91c1.08,0,2.85,0,3.93,0s.2-.06-2-.06-3.05,0-2,.06m43.57,0c1.09,0,2.81,0,3.83,0s.13-.06-2-.06-2.95,0-1.86.06m-47.95.26a8.81,8.81,0,0,1-1.52.18,4.61,4.61,0,0,0-1.51.33c-.51.25-.52.28-.1.17s1.19-.2,2-.3c1.91-.24,3.25-.55,2.32-.54a5.5,5.5,0,0,0-1.21.16m11.49,0a14.77,14.77,0,0,0,2,.38,17.13,17.13,0,0,1,1.91.31c.46.12.47.11.12-.11a6.18,6.18,0,0,0-1.71-.41l-2.14-.27c-.75-.11-.77-.1-.2.1m32.53-.1a6.43,6.43,0,0,1-1.4.27c-1.15.15-1.19.17-.38.19a9.56,9.56,0,0,0,2-.26c.87-.22,1-.28.49-.3a1.46,1.46,0,0,0-.73.1m11.43.18a10.81,10.81,0,0,0,2.22.27l1,0-1.11-.15-2.22-.27-1.11-.12,1.21.29m-14.87.43a9.83,9.83,0,0,1-1.59.48c-.82.21-1.33.38-1.15.39a14.48,14.48,0,0,0,3.19-.8c.27-.16.27-.18,0-.18a.66.66,0,0,0-.44.11m18.3,0a12,12,0,0,0,3.43.85c.42,0-.31-.24-1.92-.57-.49-.11-1.08-.26-1.31-.33s-.33-.08-.2,0m-64.63.58c-.62.17-.75.26-.4.26a7.22,7.22,0,0,0,1.51-.27c.76-.21.86-.28.4-.27a7.33,7.33,0,0,0-1.51.28m22.59,0a5.59,5.59,0,0,0,1.31.27c.22,0,0-.14-.51-.29a5.41,5.41,0,0,0-1.31-.28c-.22,0,0,.14.51.3m-24.61.6c-.63.24-.65.27-.19.28a1.68,1.68,0,0,0,.91-.28q.7-.54-.72,0m26.71,0a1.57,1.57,0,0,0,.76.29,1.77,1.77,0,0,1,.72.2,4.78,4.78,0,0,0,2.1.75c.18-.08.17-.11,0-.12a6.68,6.68,0,0,1-1.36-.52,5.2,5.2,0,0,0-1.44-.51.7.7,0,0,1-.52-.2.46.46,0,0,0-.36-.2c-.13,0-.06.14.15.31m18-.11a.65.65,0,0,1-.5.2c-.43,0-3.08,1.2-2.67,1.21a6.38,6.38,0,0,0,1.29-.5,5.51,5.51,0,0,1,1.38-.51c.37,0,1.23-.59.87-.6a.48.48,0,0,0-.37.2m26.2.08a1.74,1.74,0,0,0,1,.32.91.91,0,0,1,.68.21.6.6,0,0,0,.47.19c.47,0-.21-.4-1.06-.6l-1-.29c-.4-.14-.4-.14,0,.17m-73.39.93a.8.8,0,0,1-.57.22c-.32,0-.35.05-.1.12a1.58,1.58,0,0,0,.91-.22c.38-.21.45-.31.23-.32a.61.61,0,0,0-.47.2m76.39.12a1.58,1.58,0,0,0,.91.22c.25-.07.22-.1-.1-.12a.82.82,0,0,1-.57-.22.59.59,0,0,0-.46-.2c-.23,0-.16.11.22.32m-78.71.8c-.5.25-.81.47-.69.48a6.22,6.22,0,0,0,1.9-.9c0-.17-.27-.07-1.21.42m35.59-.33a18.38,18.38,0,0,0,2.38,1.33c2.53,1.27,2.84,1.3,4.53.43,2.56-1.32,3.48-1.82,3.41-1.89a17.26,17.26,0,0,0-2.33,1.09c-2.85,1.46-3,1.46-5.87,0a11.08,11.08,0,0,0-2.12-1m44.47-.08a5.38,5.38,0,0,0,1.93.85c.05,0-.36-.28-.91-.51a3.22,3.22,0,0,0-1-.34m-82.68,1.63a43.18,43.18,0,0,0-11,8.3c-2.66,2.72-6.9,8.42-6.9,9.29a.74.74,0,0,1-.27.41,3,3,0,0,0-.53,1c-.15.45-.34.81-.43.81s-.21.2-.29.45a15.31,15.31,0,0,1-.61,1.5,6,6,0,0,0-.49,1.32.76.76,0,0,1-.19.47,5.84,5.84,0,0,0-.59,1.41l-.54,1.61c-.1.27-.08.33,0,.2a5.16,5.16,0,0,0,.56-1.31,13.74,13.74,0,0,1,.64-1.65A2.4,2.4,0,0,0,190,308a5.6,5.6,0,0,1,.51-1.24,5.56,5.56,0,0,0,.5-1.27.74.74,0,0,1,.27-.48,3,3,0,0,0,.54-1,1.8,1.8,0,0,1,.39-.81c.08,0,.29-.37.49-.81a5.61,5.61,0,0,1,.59-1.06,6.1,6.1,0,0,0,.63-1,13.57,13.57,0,0,1,.76-1.21c.21-.27.79-1.06,1.28-1.74a44.42,44.42,0,0,1,15.27-12.62c.7-.34,1-.58.6-.54a12.55,12.55,0,0,0-1.46.71m97.67,2.21a3.54,3.54,0,0,0-1.68,1.92c0,.15.22-.05.49-.45a3.34,3.34,0,0,1,4.86-.61,2.88,2.88,0,0,1,1,3,3.24,3.24,0,0,1-6,.84c-.19-.36-.35-.53-.36-.37a3.73,3.73,0,0,0,1.61,1.94c.65.33,3,.41,3,.1,0-.11.12-.2.27-.2.47,0,1.46-1.29,1.69-2.18a3.52,3.52,0,0,0-4.92-4m-1.82,3.11c0,.5,0,.7.08.45a2.72,2.72,0,0,0,0-.9c0-.25-.08-.05-.08.45m11.64,19.15a9.4,9.4,0,0,0,.47,1.62,44.41,44.41,0,0,1,1.42,4.74c.16.67.3,1,.31.77a7.33,7.33,0,0,0-.28-1.52c-.17-.58-.41-1.47-.54-2a12.62,12.62,0,0,0-.51-1.54,3.55,3.55,0,0,1-.27-.84c0-.33-.59-1.57-.6-1.26m-129.71,3.13c-.07.34-.19.84-.26,1.11-.12.48-.11.48.2-.06a2.18,2.18,0,0,0,.26-1.11l-.07-.54-.13.6m-.74,2.74a4.88,4.88,0,0,0-.18,1.51c.07.25.11.14.13-.28a2.91,2.91,0,0,1,.24-1.07,1.74,1.74,0,0,0,.15-.84c0-.28-.17,0-.34.68m-.53,2.41c-.08.23-.1.48,0,.53s.16-.09.24-.33a.88.88,0,0,0,0-.54c-.06,0-.17.1-.24.34m133.2-.15a1.81,1.81,0,0,0,.18.7,14.58,14.58,0,0,1,.45,2.47c.14,1.17.29,1.86.33,1.55a5.94,5.94,0,0,0-.14-1.57,9.62,9.62,0,0,1-.22-1.58c0-.62-.58-2.16-.6-1.57m-133.57,2.16a24,24,0,0,0-.25,3.63,25.31,25.31,0,0,0,.48-4.23c-.05-.33-.13-.12-.23.6m134.73,5.55a88.61,88.61,0,0,1,0,9.78l-.13,2.12.22-1.72a64.43,64.43,0,0,0,0-10.58l-.23-1.62.14,2m-135.36.36a6.53,6.53,0,0,0,0,1.68,8.77,8.77,0,0,0,.29-2.87c0-.21-.15.33-.24,1.19m-.24,4.48c0,1.33,0,1.85.08,1.15s0-1.79,0-2.42-.07-.06-.07,1.27m.17,3.23a13.62,13.62,0,0,0,.15,1.81l.16,1v-1.21a10.24,10.24,0,0,0-.15-1.82c-.15-.57-.16-.56-.16.21m.49,4.84c.06.88.18,2.11.28,2.72.16,1,.16,1,.07-.41,0-.83-.18-2-.28-2.72-.16-1.13-.17-1.1-.07.41m134.52.4c-.07.55-.19,1.67-.27,2.47a4.81,4.81,0,0,1-.3,1.58c-.1.06-.17.35-.16.65,0,.47,0,.43.28-.27a23.16,23.16,0,0,0,.67-5.15c-.05-.16-.15.16-.22.72m-134,3.93a2.43,2.43,0,0,0,.19.71l.17.4v-.4a1.53,1.53,0,0,0-.18-.71c-.18-.27-.2-.27-.19,0m.42,1.92a6,6,0,0,0,.28,1.71l.3.91-.12-.81c-.07-.44-.2-1.21-.28-1.71l-.16-.91,0,.81m132.48,1.16a5.71,5.71,0,0,0-.15,1.7c.07.07.13-.12.13-.42a2.33,2.33,0,0,1,.22-.95,2.74,2.74,0,0,0,.15-1.15c-.05-.61-.11-.47-.35.82m-131.8,2.06c.07.34.2,1,.28,1.41l.17.81,0-.73a3.62,3.62,0,0,0-.28-1.41c-.31-.68-.32-.68-.19-.08m131.31.05a6.37,6.37,0,0,0-.25,1.23,3,3,0,0,1-.31,1.16.75.75,0,0,0-.17.55c0,.65.36-.21.7-1.78.25-1.16.26-1.53,0-1.16m-130.39,3.42a9.47,9.47,0,0,0,.79,2.76,1.09,1.09,0,0,1,.2.65,3.53,3.53,0,0,0,.31,1.12c.21.44.27.5.19.17s-.2-.85-.29-1.28a2.5,2.5,0,0,0-.39-1,1.35,1.35,0,0,1-.24-.74c0-.55-.55-2.1-.57-1.69m129.29.81a5.21,5.21,0,0,0-.23,1.19c0,.21.15-.06.31-.59a3.6,3.6,0,0,0,.23-1.19c0-.12-.18.15-.31.59m-.5,1.81a10.87,10.87,0,0,0-.71,2.59c.05.05.21-.29.35-.76s.34-1.07.44-1.34c.18-.45.12-.84-.08-.49m-127.19,2.93a.6.6,0,0,0,.2.46.8.8,0,0,1,.22.57c0,.32,0,.35.12.1a1.58,1.58,0,0,0-.22-.91c-.21-.38-.31-.45-.32-.22m126.05.33a2.18,2.18,0,0,0-.21.87c0,.35.09.26.3-.33.31-.87.26-1.19-.09-.54M191,358.36a.72.72,0,0,0,.17.37,4.64,4.64,0,0,1,.43,1c.15.48.31.82.36.77a5.76,5.76,0,0,0-.77-2.24c-.11-.06-.19,0-.19.06m124.62,1a5.91,5.91,0,0,0-.39,1.09,3,3,0,0,1-.29.74c-.62,1.25-.79,1.68-.68,1.79s.22-.19.35-.56.34-.83.45-1a16.31,16.31,0,0,0,1.05-2.94,3.64,3.64,0,0,0-.49.93M192,360.9a12.06,12.06,0,0,0,1,1.92,7.8,7.8,0,0,0-.89-2c-.06,0-.11,0-.11.07m1,2.25c0,.36.58,1.24.59.9a1.49,1.49,0,0,0-.29-.71c-.17-.21-.3-.3-.3-.19m120.77.63c-.13.32-.33.76-.44,1-.19.37-.18.38.12.13a1,1,0,0,0,.33-.61.94.94,0,0,1,.24-.58c.13-.13.18-.3.11-.37s-.23.13-.36.45m-120.18.76a24.56,24.56,0,0,0,1.61,3.07,18.43,18.43,0,0,0-1.51-3.15.09.09,0,0,0-.1.08m118.88,2c-.32.69-.8,1.6-1.06,2a2.35,2.35,0,0,0-.41,1,7.27,7.27,0,0,0,1.15-1.94,13,13,0,0,0,1-2.22,4,4,0,0,0-.67,1.17m-116.84,2.15c.25.45.49.78.53.74a3.19,3.19,0,0,0-.82-1.53c-.09,0,0,.35.29.79m.6,1.15a6.06,6.06,0,0,0,.59,1.08c.32.49.77,1.27,1,1.71,2.24,4.11,9.59,13.55,11.32,14.53a15.74,15.74,0,0,0-2.35-2.61c-.23-.24-.81-.92-1.3-1.53s-1-1.2-1.11-1.32c-.32-.28-4.55-6.1-4.55-6.25a3.44,3.44,0,0,0-.5-.79,3,3,0,0,1-.5-.8,3.19,3.19,0,0,0-.46-.79,13.8,13.8,0,0,1-1.36-2.29c-.37-.78-.83-1.32-.79-.94m114,.92c-.24.48-.67,1.22-.95,1.67a14.83,14.83,0,0,0-.75,1.31,2.73,2.73,0,0,1-.35.6,13.82,13.82,0,0,0-1.41,2.21.29.29,0,0,1-.16.25,9.33,9.33,0,0,0-1,1.38,8.75,8.75,0,0,1-1.16,1.47.52.52,0,0,0-.27.37,7.25,7.25,0,0,1-1,1.46c-2.63,3.14-3.08,3.73-1.63,2.15a39,39,0,0,0,3.1-3.74c.49-.67.94-1.26,1-1.31s2.88-4.26,3.14-4.74c.11-.22.44-.77.72-1.21a9,9,0,0,0,1.42-2.72c-.09,0-.36.38-.61.85M298.59,386.5a48.55,48.55,0,0,1-4.52,4.19c-1.86,1.43-2.91,2.33-2.42,2.08,1.28-.65,9.34-7.95,8.76-7.94a13.62,13.62,0,0,0-1.82,1.67m-87.95,2.11c.69.64,1.34,1.26,1.45,1.38a10.54,10.54,0,0,0,1,.81,9.67,9.67,0,0,1,1,.8,7.78,7.78,0,0,0,2.32,1.53c0-.11-.18-.26-.4-.33s-.41-.21-.41-.31-.16-.22-.35-.28a7.12,7.12,0,0,1-1.36-1,7.65,7.65,0,0,0-1.12-.91,16.68,16.68,0,0,1-1.61-1.41,15.19,15.19,0,0,0-1.64-1.41,6.62,6.62,0,0,0,1.1,1.15m79.8,4.79c-.39.27-.81.58-.95.7a.92.92,0,0,1-.35.21,12.49,12.49,0,0,0-1.37.76c-.69.42-1.52.88-1.84,1s-.54.3-.48.35.41-.05,2.77-1.38a18.53,18.53,0,0,0,3-2.08c0-.13-.05-.1-.81.42m-73.61.2a.83.83,0,0,0,.46.31c.11,0,.09-.14,0-.31a.82.82,0,0,0-.46-.3c-.11,0-.09.13.05.3m.81.4a3.18,3.18,0,0,0,1.33.86c.06-.05-.22-.29-.62-.52a2.22,2.22,0,0,0-.71-.34m34.08.51c-.5.32-1.39.87-2,1.22s-1,.68-1,.73a4.53,4.53,0,0,0,1.37-.75,20.94,20.94,0,0,1,2.29-1.33c.55-.26.82-.46.6-.46a4.2,4.2,0,0,0-1.31.59m2.93-.26a8,8,0,0,1,1.44.79,2.64,2.64,0,0,0,.84.48.73.73,0,0,1,.42.28c.58.7,6.8,3.36,7.78,3.33.22,0-.05-.14-.6-.31a10.89,10.89,0,0,1-1.36-.5,1.59,1.59,0,0,0-.57-.18,29,29,0,0,1-5.52-2.72,9,9,0,0,0-2.9-1.5c-.19,0,0,.15.47.33m-35.2,1a.83.83,0,0,0,.44.31,4.27,4.27,0,0,1,1,.51,2.56,2.56,0,0,0,1,.46c.11,0-.46-.41-1.26-.83s-1.33-.63-1.18-.45m3,1.55a14.68,14.68,0,0,0,3.17,1.37,8.77,8.77,0,0,0-2.4-1.11c-.29-.08-.52-.21-.52-.31s-.11-.18-.24-.18-.18.05,0,.23m25,.2c-.42.22-.73.44-.69.48a4.81,4.81,0,0,0,1.78-.82c0-.15-.26-.07-1.09.34m37.18-.22a5.39,5.39,0,0,1-.88.4c-.32.11-.54.25-.48.31a5.47,5.47,0,0,0,2-.84c0-.13-.29-.07-.61.13m-38.92,1.1c-.29.16-.38.29-.2.29a1.45,1.45,0,0,0,.69-.3c.5-.38.17-.37-.49,0m36.3,0c-.28.16-.37.28-.2.28a2.15,2.15,0,0,0,.81-.29c.27-.16.36-.28.2-.28a2.58,2.58,0,0,0-.81.29m-55.48.6a3.61,3.61,0,0,0,1,.3.65.65,0,0,1,.5.2c.06.11.41.19.76.18.54,0,.47-.06-.46-.32a10.19,10.19,0,0,1-1.46-.48,1.53,1.53,0,0,0-.71-.18c-.2,0-.06.13.33.3m17.93-.2a8.92,8.92,0,0,1-1.4.49c-.7.21-1.11.38-.89.39a12.93,12.93,0,0,0,2.92-.92s-.05-.07-.22-.07a.69.69,0,0,0-.41.11m36.29,0a3.56,3.56,0,0,1-.89.31c-1.9.49-2,.54-1.49.56a6.66,6.66,0,0,0,1.71-.41c1.34-.47,1.55-.58,1.09-.58a.66.66,0,0,0-.42.12m-50.36,1.17a4.4,4.4,0,0,0,1.51.28h.8l-.9-.16-1.52-.28c-.56-.11-.56-.1.11.17m10.21-.14a3.18,3.18,0,0,1-1,.27c-.84.14-.84.14-.15.16a4.66,4.66,0,0,0,1.51-.26c.68-.25.72-.3.29-.3a1.12,1.12,0,0,0-.66.13m25.78.15a4.54,4.54,0,0,0,1.51.28l.71,0-.81-.17c-.44-.09-1.12-.22-1.51-.28l-.7-.12.8.31m10.31-.15a3.57,3.57,0,0,1-1.09.28l-.95.13.81,0a5,5,0,0,0,1.61-.26c.68-.25.72-.3.29-.3a1.18,1.18,0,0,0-.67.13m-42.52.61c.8,0,2.12,0,2.92,0s.15-.07-1.46-.07-2.27,0-1.46.07m36.09,0c.81,0,2.12,0,2.93,0s.14-.07-1.46-.07-2.27,0-1.47.07"/><path id="path4" class="cls-8" d="M278.29,237.56a2.42,2.42,0,0,0,.81,0c.19-.05,0-.09-.46-.09s-.6,0-.35.1M223.35,255.4a22.32,22.32,0,0,0,.74,6c.11.25.29.66.39.91a20.2,20.2,0,0,0,1.52,3,10.34,10.34,0,0,1,.69,1c.25.42.54.76.65.76a.18.18,0,0,1,.18.18,14.16,14.16,0,0,0,3.35,3.05,3,3,0,0,1,.8.5,2.76,2.76,0,0,0,.86.5,3.76,3.76,0,0,1,.87.34c1.25.62,1.37.67,1.76.67a1,1,0,0,1,.63.3c.17.2.62.31,1.32.31h1.06l-1.59-1.65c-1.15-1.19-1.6-1.79-1.6-2.17a1.93,1.93,0,0,0-.16-.77c-.36-.56.24-2.14,1.14-3l.88-.85H240l1.75,1.66,1.76,1.66-.11-.7a13.94,13.94,0,0,0-1.58-4.7,10.68,10.68,0,0,0-1.95-3.13,17.3,17.3,0,0,0-6-4.75c-.44-.19-1-.43-1.15-.54a1.84,1.84,0,0,0-.68-.19,3.16,3.16,0,0,1-1-.29c-.82-.38-2.07-.53-5.23-.65l-2.59-.09.09,2.68m77.38,28a1.13,1.13,0,0,0,.77.8.91.91,0,0,1,.48.27,9.65,9.65,0,0,0,1.16.83,12.74,12.74,0,0,1,1.4,1,2.3,2.3,0,0,0,.64.48,3.37,3.37,0,0,1,.8.59c.37.32.78.54.92.48s-.49-.65-1.4-1.34c-2.49-1.89-4.77-3.39-4.77-3.15m11.42,9.2c-.3.31-.09.84.68,1.66a7.77,7.77,0,0,1,.8.94,24.23,24.23,0,0,0,3.07,4c.1-.07.05-.27-.11-.45s-.72-1-1.25-1.74-1.45-2-2-2.77a4,4,0,0,1-1-1.56c.14-.24,0-.28-.17-.08m16.07,35c0,.83,0,1.17.08.75a9.52,9.52,0,0,0,0-1.51c0-.41-.08-.07-.08.76m0,5c0,.83,0,1.17.08.76a9.64,9.64,0,0,0,0-1.52c0-.41-.08-.07-.08.76"/></g><circle class="cls-11" cx="392.75" cy="290.43" r="3.25"/><ellipse class="cls-12" cx="392.92" cy="228.73" rx="0.17" ry="21.12"/><ellipse class="cls-12" cx="392.92" cy="344.6" rx="0.17" ry="19.68"/></g><g id="Layer_7_copy" data-name="Layer 7 copy"><g id="Layer_4_copy" data-name="Layer 4 copy"><rect class="cls-1" x="328.44" y="410.43" width="167.29" height="75.18" rx="37.59"/><line class="cls-2" x1="412.09" y1="410.43" x2="412.09" y2="485.61"/></g><g id="Layer_6_copy" data-name="Layer 6 copy"><path class="cls-3" d="M405.21,486H359.15a37.59,37.59,0,0,1-37.59-37.59h0a37.58,37.58,0,0,1,37.59-37.58h46.06"/><line class="cls-4" x1="419.68" y1="410.85" x2="387.73" y2="410.85"/><line class="cls-2" x1="418.44" y1="486.02" x2="402.21" y2="486.02"/></g></g></g></g></svg>